<svg width="24" height="24" viewBox="0 0 24 24" xmlns="http://www.w3.org/2000/svg">
<g clip-path="url(#clip0)">
<path d="M12.3603 10.2245C12.3404 10.1991 12.3149 10.1785 12.2859 10.1644C12.2568 10.1502 12.225 10.1429 12.1927 10.1429C12.1604 10.1429 12.1285 10.1502 12.0994 10.1644C12.0704 10.1785 12.045 10.1991 12.025 10.2245L9.04516 13.9946C9.02059 14.026 9.00535 14.0636 9.00117 14.1033C8.99699 14.1429 9.00405 14.1829 9.02154 14.2187C9.03902 14.2545 9.06623 14.2846 9.10005 14.3057C9.13386 14.3268 9.17293 14.3379 9.21277 14.3378H11.179V20.7871C11.179 20.9042 11.2747 21 11.3918 21H12.9882C13.1052 21 13.201 20.9042 13.201 20.7871V14.3405H15.1725C15.3508 14.3405 15.4492 14.1356 15.3402 13.9973L12.3603 10.2245Z"/>
<path d="M20.0753 7.55199C18.8451 4.30728 15.7105 2 12.0387 2C8.36693 2 5.23235 4.3046 4.00216 7.5493C1.70025 8.15365 0 10.2514 0 12.744C0 15.7121 2.40398 18.1161 5.36934 18.1161H6.44643C6.56461 18.1161 6.66131 18.0194 6.66131 17.9012V16.2896C6.66131 16.1714 6.56461 16.0747 6.44643 16.0747H5.36934C4.46415 16.0747 3.61269 15.7148 2.97879 15.0621C2.34757 14.4121 2.01182 13.5364 2.04137 12.6285C2.06554 11.9194 2.30728 11.2533 2.7451 10.6919C3.19367 10.1198 3.8222 9.70348 4.52056 9.51815L5.53856 9.25223L5.91191 8.26915C6.14291 7.65674 6.46523 7.08462 6.87082 6.56622C7.27123 6.05241 7.74553 5.60073 8.27829 5.2259C9.38224 4.44964 10.6823 4.03868 12.0387 4.03868C13.3951 4.03868 14.6952 4.44964 15.7991 5.2259C16.3336 5.60194 16.8064 6.05319 17.2066 6.56622C17.6122 7.08462 17.9345 7.65943 18.1655 8.26915L18.5362 9.24955L19.5515 9.51815C21.0073 9.91031 22.0253 11.2345 22.0253 12.744C22.0253 13.6331 21.6788 14.4712 21.0503 15.0997C20.742 15.4097 20.3754 15.6555 19.9715 15.8229C19.5676 15.9903 19.1345 16.0759 18.6973 16.0747H17.6202C17.5021 16.0747 17.4054 16.1714 17.4054 16.2896V17.9012C17.4054 18.0194 17.5021 18.1161 17.6202 18.1161H18.6973C21.6627 18.1161 24.0667 15.7121 24.0667 12.744C24.0667 10.2541 22.3718 8.15903 20.0753 7.55199Z"/>
</g>
<defs>
<clipPath id="clip0">
<rect width="24" height="24"/>
</clipPath>
</defs>
</svg>
