<svg width="24" height="24" viewBox="0 0 24 24" xmlns="http://www.w3.org/2000/svg">
<path d="M4.07083 9.92308L10.1544 17.1166L7.22492 9.92308H4.07083ZM12 18.274L15.408 9.92308H8.59202L12 18.274ZM7.25422 8.53846L9.24627 4.38462H6.68785L3.87553 8.53846H7.25422ZM13.8456 17.1166L19.9292 9.92308H16.7751L13.8456 17.1166ZM8.67014 8.53846H15.3299L13.3378 4.38462H10.6622L8.67014 8.53846ZM16.7458 8.53846H20.1245L17.3122 4.38462H14.7537L16.7458 8.53846ZM18.1226 3.28125L21.8724 8.81971C21.9635 8.94952 22.0059 9.09916 21.9993 9.26863C21.9928 9.4381 21.9375 9.58413 21.8333 9.70673L12.459 20.7837C12.3418 20.9279 12.1888 21 12 21C11.8112 21 11.6582 20.9279 11.541 20.7837L2.16666 9.70673C2.0625 9.58413 2.00716 9.4381 2.00065 9.26863C1.99414 9.09916 2.03646 8.94952 2.1276 8.81971L5.87735 3.28125C5.99453 3.09375 6.16054 3 6.37537 3H17.6246C17.8395 3 18.0055 3.09375 18.1226 3.28125Z" />
</svg>
