<svg width="20" height="20" viewBox="0 0 20 20" xmlns="http://www.w3.org/2000/svg">
<path fill-rule="evenodd" clip-rule="evenodd" d="M16.432 15C14.387 9.893 12 8.547 12 6V3H12.5C12.6326 3 12.7598 2.94732 12.8536 2.85355C12.9473 2.75979 13 2.63261 13 2.5V1.5C13 1.36739 12.9473 1.24021 12.8536 1.14645C12.7598 1.05268 12.6326 1 12.5 1H7.5C7.36739 1 7.24022 1.05268 7.14645 1.14645C7.05268 1.24021 7 1.36739 7 1.5V2.5C7 2.63261 7.05268 2.75979 7.14645 2.85355C7.24022 2.94732 7.36739 3 7.5 3H8V6C8 8.547 5.613 9.893 3.568 15C2.917 16.625 1.245 19 10 19C18.755 19 17.083 16.625 16.432 15ZM14.815 16.751C14.113 16.961 12.716 17.2 10 17.2C7.284 17.2 5.887 16.961 5.185 16.751C4.936 16.677 4.839 16.388 4.927 16.123C5.147 15.453 5.562 14.295 6.338 13.002C8.234 9.843 10.201 13.499 11.838 13.499C13.475 13.499 13.026 11.938 13.662 13.002C14.2473 13.9864 14.7205 15.0333 15.073 16.123C15.161 16.388 15.064 16.676 14.815 16.751Z" />
</svg>
