<svg width="24" height="24" viewBox="0 0 24 24" xmlns="http://www.w3.org/2000/svg">
<path d="M20.25 1.5C19.6007 1.49972 18.9688 1.7102 18.4494 2.0998C17.93 2.48939 17.551 3.03706 17.3695 3.66048C17.188 4.2839 17.2138 4.94939 17.4429 5.55693C17.672 6.16446 18.0922 6.68121 18.6401 7.02952L16.6825 13.8811C16.6218 13.8772 16.5609 13.8752 16.5 13.875C15.8547 13.8743 15.2265 14.0828 14.7097 14.4693L11.0931 11.4555C11.2643 10.9474 11.2963 10.4028 11.1857 9.8783C11.0751 9.35375 10.8259 8.86842 10.4642 8.47281C10.1024 8.07719 9.64125 7.78574 9.12867 7.62877C8.61608 7.4718 8.0708 7.45505 7.54954 7.58026C7.02829 7.70548 6.55011 7.96808 6.16474 8.34074C5.77938 8.71341 5.50092 9.18253 5.35832 9.6993C5.21573 10.2161 5.21421 10.7616 5.35393 11.2792C5.49364 11.7967 5.76949 12.2674 6.15277 12.6422L4.02971 16.8885C3.93674 16.8797 3.8434 16.8752 3.75001 16.875C3.03131 16.8741 2.3361 17.1309 1.79056 17.5988C1.24503 18.0667 0.885343 18.7147 0.776783 19.4251C0.668222 20.1356 0.817988 20.8614 1.19889 21.4709C1.5798 22.0803 2.1666 22.533 2.85278 22.7468C3.53896 22.9605 4.27904 22.9212 4.93867 22.6358C5.59831 22.3505 6.13379 21.8381 6.44791 21.1917C6.76203 20.5453 6.83397 19.8077 6.65067 19.1127C6.46737 18.4178 6.04098 17.8116 5.4489 17.4042L7.45515 13.3922C7.9425 13.5267 8.45596 13.5355 8.94763 13.4178C9.43929 13.3001 9.89313 13.0598 10.2668 12.7193L13.7684 15.6374C13.5306 16.1614 13.4485 16.7427 13.532 17.312C13.6154 17.8814 13.8608 18.4147 14.2389 18.8484C14.6171 19.2822 15.1119 19.598 15.6646 19.7583C16.2172 19.9186 16.8043 19.9166 17.3558 19.7524C17.9074 19.5883 18.4001 19.2691 18.7752 18.8327C19.1503 18.3964 19.392 17.8614 19.4715 17.2915C19.551 16.7215 19.4649 16.1408 19.2235 15.6185C18.9821 15.0961 18.5955 14.6542 18.11 14.3455L20.0675 7.49391C20.1279 7.49756 20.1886 7.5 20.25 7.5C21.0457 7.5 21.8087 7.18393 22.3713 6.62132C22.9339 6.05871 23.25 5.29565 23.25 4.5C23.25 3.70435 22.9339 2.94129 22.3713 2.37868C21.8087 1.81607 21.0457 1.5 20.25 1.5ZM3.75001 21.375C3.45334 21.375 3.16333 21.287 2.91665 21.1222C2.66998 20.9574 2.47772 20.7231 2.36419 20.449C2.25066 20.1749 2.22095 19.8733 2.27883 19.5824C2.33671 19.2914 2.47957 19.0241 2.68935 18.8143C2.89913 18.6046 3.1664 18.4617 3.45737 18.4038C3.74834 18.3459 4.04994 18.3756 4.32403 18.4892C4.59812 18.6027 4.83239 18.795 4.99721 19.0416C5.16203 19.2883 5.25001 19.5783 5.25001 19.875C5.24956 20.2727 5.09138 20.654 4.81018 20.9352C4.52897 21.2164 4.1477 21.3746 3.75001 21.375ZM8.25001 12C7.95334 12 7.66333 11.912 7.41665 11.7472C7.16998 11.5824 6.97772 11.3481 6.86419 11.074C6.75066 10.7999 6.72095 10.4983 6.77883 10.2074C6.83671 9.91639 6.97957 9.64912 7.18935 9.43934C7.39913 9.22956 7.6664 9.0867 7.95737 9.02882C8.24834 8.97094 8.54994 9.00065 8.82403 9.11418C9.09812 9.22771 9.33239 9.41997 9.49721 9.66665C9.66203 9.91332 9.75001 10.2033 9.75001 10.5C9.74956 10.8977 9.59138 11.279 9.31017 11.5602C9.02897 11.8414 8.6477 11.9996 8.25001 12ZM16.5 18.375C16.2033 18.375 15.9133 18.287 15.6667 18.1222C15.42 17.9574 15.2277 17.7231 15.1142 17.449C15.0007 17.1749 14.971 16.8733 15.0288 16.5824C15.0867 16.2914 15.2296 16.0241 15.4393 15.8143C15.6491 15.6046 15.9164 15.4617 16.2074 15.4038C16.4983 15.3459 16.7999 15.3756 17.074 15.4892C17.3481 15.6027 17.5824 15.795 17.7472 16.0416C17.912 16.2883 18 16.5783 18 16.875C17.9996 17.2727 17.8414 17.654 17.5602 17.9352C17.279 18.2164 16.8977 18.3746 16.5 18.375ZM20.25 6C19.9533 6 19.6633 5.91203 19.4167 5.7472C19.17 5.58238 18.9777 5.34811 18.8642 5.07403C18.7507 4.79994 18.721 4.49834 18.7788 4.20737C18.8367 3.91639 18.9796 3.64912 19.1893 3.43934C19.3991 3.22956 19.6664 3.0867 19.9574 3.02882C20.2483 2.97094 20.5499 3.00065 20.824 3.11418C21.0981 3.22771 21.3324 3.41997 21.4972 3.66665C21.662 3.91332 21.75 4.20333 21.75 4.5C21.7496 4.89769 21.5914 5.27896 21.3102 5.56017C21.029 5.84137 20.6477 5.99955 20.25 6Z" />
</svg>
