<svg width="24" height="27" viewBox="0 0 24 27" fill="none" xmlns="http://www.w3.org/2000/svg">
    <g opacity="0.9">
        <path d="M7.71741 7.76497C7.71741 22.9795 7.71741 23.0753 7.71741 23.0753C7.71741 23.0753 7.71741 -7.45055 7.71741 7.76497Z" fill="white" stroke="white" stroke-width="1.9959" stroke-linecap="square"/>
        <path d="M8.16101 14.2729L16.1446 5.47047Z" fill="white"/>
        <path d="M8.16101 14.2729L16.1446 5.47047" stroke="white" stroke-width="1.9959" stroke-linecap="square"/>
        <path d="M9.93518 13.2949L17.0317 22.0973Z" fill="white"/>
        <path d="M9.93518 13.2949L17.0317 22.0973" stroke="white" stroke-width="1.9959" stroke-linecap="square"/>
        <path d="M14.3705 18.1851L20.58 11.3388Z" fill="white"/>
        <path d="M14.3705 18.1851L20.58 11.3388" stroke="white" stroke-width="1.9959" stroke-linecap="square"/>
        <path d="M11.7093 2.53632C17.0982 2.53632 21.467 7.35321 21.467 13.2949C21.467 19.2365 17.0982 24.0534 11.7093 24.0534C6.32035 24.0534 1.95154 19.2365 1.95154 13.2949C1.95154 7.35321 6.32035 2.53632 11.7093 2.53632Z" stroke="white" stroke-width="1.9959"/>
    </g>
</svg>
