<svg width="24" height="24" viewBox="0 0 24 24" fill="none" xmlns="http://www.w3.org/2000/svg">
<path d="M15.375 6.37501C15.375 4.51102 13.864 3 12 3C10.136 3 8.62502 4.51102 8.62502 6.37501C8.62502 8.239 10.136 9.75002 12 9.75002C13.864 9.75002 15.375 8.239 15.375 6.37501ZM11.2122 11.4762C9.12635 10.1993 5.74782 9.84846 4.04766 9.75178C3.47637 9.71944 3 10.1547 3 10.7042V18.537C3 19.0408 3.40746 19.4609 3.93129 19.488C5.46622 19.5685 8.57158 19.8635 10.7179 20.9445C11.0473 21.1105 11.4379 20.8844 11.4379 20.5272V11.8791C11.4375 11.7149 11.3563 11.5644 11.2122 11.4762ZM19.9524 9.75178C18.2526 9.84811 14.8737 10.1993 12.7882 11.4762C12.6441 11.5644 12.5629 11.7209 12.5629 11.8851V20.5262C12.5629 20.8844 12.9545 21.1108 13.285 20.9445C15.4309 19.8645 18.5345 19.5696 20.0691 19.489C20.593 19.4616 21.0004 19.0415 21.0004 18.5377V10.7042C21.0001 10.1547 20.5237 9.71944 19.9524 9.75178Z"/>
</svg>
