<svg width="24" height="24" viewBox="0 0 24 24" xmlns="http://www.w3.org/2000/svg">
    <path fill-rule="evenodd" clip-rule="evenodd" d="M21.4809 23H9.49267C9.07121 23 8.71609 22.8555 8.42731 22.5664C8.13853 22.2773 7.99414 21.9219 7.99414 21.5V20H6.4956C6.07414 20 5.71902 19.8516 5.43024 19.5547C5.14146 19.2578 4.99707 18.9062 4.99707 18.5V17H3.49853C3.07707 17 2.72195 16.8516 2.43317 16.5547C2.14439 16.2578 2 15.9062 2 15.5V14V12.5V3.5C2 3.07812 2.14439 2.72266 2.43317 2.43359C2.72195 2.14453 3.07707 2 3.49853 2H12.4897H13.9883H15.4868C15.9083 2 16.2634 2.14453 16.5522 2.43359C16.841 2.72266 16.9853 3.07812 16.9853 3.5V5H18.4839C18.8897 5 19.2409 5.14453 19.5375 5.43359C19.8341 5.72266 19.9824 6.07812 19.9824 6.5V8H21.4809C21.9024 8 22.2575 8.14453 22.5463 8.43359C22.8351 8.72266 22.9795 9.07812 22.9795 9.5V21.5C22.9795 21.9062 22.8351 22.2578 22.5463 22.5547C22.2575 22.8516 21.9024 23 21.4809 23ZM3.49853 3.5H15.4868V5H6.4956C6.07414 5 5.71902 5.14453 5.43024 5.43359C5.14146 5.72266 4.99707 6.07812 4.99707 6.5V15.5H3.49853V3.5ZM6.4956 6.5H18.4839V8H9.49267C9.07121 8 8.71609 8.14453 8.42731 8.43359C8.13853 8.72266 7.99414 9.07812 7.99414 9.5V18.5H6.4956V6.5ZM9.49267 9.5H21.4809V21.5H9.49267V9.5Z"/>
</svg>
